<?xml version="1.0" encoding="utf-8"?>
<!-- Generator: Adobe Illustrator 19.0.0, SVG Export Plug-In . SVG Version: 6.00 Build 0)  -->
<svg version="1.1" id="レイヤー_1" xmlns="http://www.w3.org/2000/svg" xmlns:xlink="http://www.w3.org/1999/xlink" x="0px"
	 y="0px" viewBox="0 0 82 74" style="enable-background:new 0 0 82 74;" xml:space="preserve">
<style type="text/css">
	.st0{fill:#FFFFFF;}
	.st1{fill:#F54910;}
</style>
<g id="XMLID_42_">
	<path id="XMLID_40_" d="M33.5,17.2c-3.4-2.1-5-5.1-3.3-6.4c1.3-1,3-3.2,3.1-5.9c0.1-2-1.3-4-1.3-4c-0.4,2.1-1.5,3.9-4.3,4.9
		c-2.8,1.1-6.2,4.2-6.5,8c-0.4,3.9,0.8,5.7,1.6,7.4C25.7,20.8,35,18.1,33.5,17.2z"/>
	<path id="XMLID_39_" d="M60.9,13.9c-0.4-3.9-3.8-6.9-6.5-8c-2.8-1.1-3.8-2.9-4.3-4.9c0,0-1.4,2-1.3,4c0.1,2.7,1.8,4.9,3.1,5.9
		c1.7,1.3,0.1,4.3-3.3,6.4c-1.5,1,7.8,3.7,10.8,4.2C60.1,19.6,61.2,17.7,60.9,13.9z"/>
	<path id="XMLID_38_" d="M8.3,30.7c0.5-2.6,3.6-4.2,5.5-4.1c-1.2-1.2-4.9-1.6-7-1.1c-3.5,0.8-6.4,3.7-6.7,8
		c-0.4,6.3,4,9.9,10.5,11.7c6.3,1.8,6.9,3.7,6.9,3.7l4.2-15.9c0,0-1.5,1.4-6.1,2.3C10.3,36.2,7.8,33.3,8.3,30.7z"/>
	<path id="XMLID_37_" d="M82,33.4c-0.3-4.3-3.2-7.1-6.7-8c-2.1-0.5-5.8-0.1-7,1.1c1.9,0,4.9,1.5,5.5,4.1c0.5,2.6-2,5.6-7.3,4.5
		c-4.6-0.9-6.1-2.3-6.1-2.3l4.2,15.9c0,0,0.6-1.9,6.9-3.7C77.9,43.3,82.4,39.8,82,33.4z"/>
	<path id="XMLID_36_" d="M23.8,52.6C19.4,47.8,14,49,10,52.2c-2.4,1.9-3.3,4.1-3.2,6.9c0.1,1.5,0.6,2.6,1.2,3.2
		c0.6-2.3,1.5-3.8,3.6-4.6c2.8-1.1,5.9,2.4,8,6.3c2.8,5.4,8.5,6.8,14.1,4.2c8.1-3.7,7.2-12.4,7.2-12.4
		C36.1,59.1,31.3,60.6,23.8,52.6z"/>
	<path id="XMLID_35_" d="M72,52.2c-4-3.2-9.3-4.4-13.8,0.4c-7.5,8.1-12.3,6.5-17.2,3.3c0,0-0.9,8.7,7.2,12.4
		c5.6,2.6,11.2,1.1,14.1-4.2c2-3.9,5.2-7.3,8-6.3c2.1,0.8,3,2.3,3.6,4.6c0.6-0.7,1.2-1.7,1.2-3.2C75.3,56.3,74.3,54.1,72,52.2z"/>
	<g id="XMLID_67_">
		<path id="XMLID_34_" d="M41,72.8L40.2,72c-2.4-2.3-5.4-3.8-8.6-5.4c-5.5-2.7-11.2-5.5-14.4-12.8c-3-6.7-2.6-12.5-2.1-19.3
			c0.3-4,0.6-8.6,0.2-13.9l-0.1-1.3l1.3,0.1c0.7,0,1.3,0.1,2,0.1c7.8,0,14.3-3.3,21.7-10.6L41,8l0.8,0.8
			c7.4,7.3,13.9,10.6,21.7,10.6c0.6,0,1.3,0,2-0.1l1.3-0.1l-0.1,1.3c-0.4,5.3-0.1,9.9,0.2,13.9c0.5,6.7,0.9,12.5-2.1,19.3
			c-3.3,7.3-8.9,10.1-14.4,12.8c-3.2,1.6-6.2,3.1-8.6,5.4L41,72.8z"/>
		<path id="XMLID_68_" d="M41,73.1l-0.9-0.9c-2.4-2.3-5.4-3.8-8.5-5.3C26,64.1,20.3,61.3,17,53.9c-3-6.8-2.6-12.6-2.1-19.4
			c0.3-4,0.6-8.6,0.2-13.9L15,19.1l1.5,0.1c0.7,0,1.3,0.1,1.9,0.1c7.6,0,14.1-3.2,21.6-10.6L41,7.8l0.9,0.9
			c7.5,7.4,14,10.6,21.6,10.6c0.6,0,1.3,0,2-0.1l1.5-0.1l-0.1,1.6c-0.4,5.3-0.1,9.9,0.2,13.9c0.5,6.8,0.9,12.6-2.1,19.4
			c-3.3,7.4-9,10.2-14.5,12.9c-3.2,1.6-6.2,3.1-8.5,5.3L41,73.1z M15.4,19.5l0.1,1.1c0.4,5.3,0.1,9.9-0.2,14
			c-0.5,6.7-0.9,12.5,2.1,19.2c3.2,7.2,8.9,10,14.3,12.7c3.2,1.6,6.2,3.1,8.6,5.4l0.6,0.6l0.6-0.6c2.4-2.3,5.4-3.8,8.6-5.4
			c5.5-2.7,11.1-5.5,14.3-12.7c3-6.7,2.6-12.5,2.1-19.2c-0.3-4-0.6-8.6-0.2-14l0.1-1.1l-1.1,0.1c-0.7,0-1.3,0.1-2,0.1
			c-7.7,0-14.3-3.2-21.9-10.7L41,8.3L40.3,9c-7.6,7.5-14.1,10.7-21.9,10.7c-0.6,0-1.3,0-2-0.1L15.4,19.5z"/>
	</g>
	<path id="XMLID_31_" class="st0" d="M17.9,22.3c0.3,4.8,0,8.9-0.3,12.6c-0.5,6.5-0.8,11.6,1.9,17.7c2.9,6.4,8.1,8.9,13.2,11.4
		c2.9,1.4,5.8,2.8,8.3,4.9c2.5-2.1,5.4-3.5,8.3-4.9c5.1-2.5,10.3-5,13.2-11.4c2.7-6,2.4-11.2,1.9-17.7c-0.3-3.7-0.6-7.8-0.3-12.6
		c-0.3,0-0.5,0-0.8,0c-8.1,0-14.8-3-22.3-10.1c-7.5,7.1-14.2,10.1-22.3,10.1h0C18.4,22.3,18.1,22.3,17.9,22.3z"/>
	<path id="XMLID_63_" d="M41,17.8c3.9,3.9,11.6,7.9,19.8,8.2c-0.3,8,2,15.4-0.1,22C57.4,58.8,49.6,59.3,41,64.5
		c-8.6-5.1-16.4-5.7-19.7-16.4c-2-6.7,0.2-14-0.1-22C29.4,25.7,37.1,21.7,41,17.8 M41,15.3l-1,1c-3.6,3.7-10.8,7.6-18.5,7.9L20,24.3
		l0.1,1.5c0.1,3-0.1,6-0.4,8.9c-0.4,4.9-0.8,9.4,0.5,13.9c2.6,8.8,8.1,11.5,13.9,14.3c2,1,4,2,6.1,3.3l0.7,0.5l0.7-0.5
		c2.1-1.3,4.2-2.3,6.1-3.3c5.8-2.8,11.3-5.5,13.9-14.3c1.3-4.5,0.9-9.1,0.5-13.9c-0.2-2.9-0.5-5.8-0.4-8.9l0.1-1.5l-1.4-0.1
		C52.8,24,45.7,20.1,42,16.4L41,15.3L41,15.3z"/>
	<path id="XMLID_28_" class="st1" d="M60.7,48c2-6.7-0.2-14,0.1-22C52.6,25.7,45,21.7,41,17.8v46.7C49.6,59.3,57.4,58.8,60.7,48z"/>
	<g id="XMLID_51_">
		<path id="XMLID_27_" d="M37.2,59.5c1.3,1,2.5,2.2,3.8,3.8c1.3-1.6,2.5-2.8,3.8-3.8c-1.2-0.3-2.5-0.6-3.8-1
			C39.7,58.9,38.4,59.3,37.2,59.5z"/>
		<path id="XMLID_26_" d="M35.7,55.9c-0.9-0.5-1.8-1.1-2.6-1.8c0,0,0,0.1-0.1,0.1c-0.7,0.2-1.5,0.4-2.5,0.4c-0.4,0-0.9,0-1.4-0.1
			c0.5,1.1,1.2,1.5,2.1,1.7c0.5,0.1,1,0.2,1.6,0.2C33.7,56.3,34.7,56.2,35.7,55.9z"/>
		<path id="XMLID_25_" d="M32.8,53.9c-0.9-0.7-1.7-1.4-2.5-2.2c-1.3,0-2.6-0.1-4-0.4c0.3,1.3,0.9,1.7,1.8,2.1
			C29.3,53.9,31,54.1,32.8,53.9z"/>
		<path id="XMLID_24_" d="M36,56.1c-0.9,0.5-2,0.9-3.4,0.9c-0.4,0-0.8,0-1.1-0.1c0.8,1.6,4.1,2.1,8.2,1C38.5,57.4,37.3,56.8,36,56.1
			z"/>
		<path id="XMLID_23_" d="M29.9,42.3c0,0,2.3-0.1,4.2-0.8c0,0-4.1-1.6-9.2-8.2c-1.5,4.2-2.2,7.3-1.2,13.5c0.7-0.6,2.4-2.7,2.4-2.7
			C33.3,58,48.7,60.5,50.6,56.9C50.2,57,49.8,57,49.4,57c-1.3-0.1-2.6-0.5-3.5-0.9c-0.1,0-0.1-0.1-0.1-0.2c0-0.1,0.1-0.1,0.2-0.1
			c1.1,0.3,2.2,0.5,3.3,0.5c0.6,0,1.1-0.1,1.6-0.2c0.9-0.2,1.5-0.5,2.1-1.7c-0.5,0.1-0.9,0.1-1.4,0.1c-1,0-1.8-0.2-2.5-0.4
			C49,54.2,49,54.1,49,54c0-0.1,0.1-0.1,0.2-0.1c1.8,0.2,3.5,0,4.8-0.5c0.8-0.3,1.4-0.8,1.8-2.1C44.6,53.3,32.6,47,29.9,42.3z"/>
		<path id="XMLID_54_" d="M38.3,36.2L38.3,36.2c0.8,0,1.2,0.3,1.2,1.1c-0.1,5-1.6,7.3-3.6,9.1c1.1,1,3.3,1.7,5.2,2.3
			c1.9-0.6,4.1-1.3,5.2-2.3c-2.1-1.7-3.5-4.1-3.6-9.1c0-0.8,0.4-1.1,1.2-1.1h0c2.1,0,3.4-0.7,3.4-2.4v-1.1l-4.6,0.6
			c0-0.3,0-1.2,0-1.4c2.3-0.7,4-2.8,4-5.3c0-3.1-2.5-5.6-5.6-5.6c-3.1,0-5.6,2.5-5.6,5.6c0,2.5,1.7,4.7,4,5.3c0,0.3,0,1.1,0,1.4
			l-4.6-0.6v1.1C34.9,35.6,36.2,36.2,38.3,36.2z M41,24.5c1.2,0,2.1,0.9,2.1,2.1c0,1.2-0.9,2.1-2.1,2.1c-1.2,0-2.1-0.9-2.1-2.1
			C38.9,25.4,39.8,24.5,41,24.5z"/>
		<g id="XMLID_52_">
			<path id="XMLID_20_" d="M57.1,33.3c-4.8,6.4-9.2,8.2-9.2,8.2c2,0.7,4.2,0.8,4.2,0.8c-1.4,2.3-5,5-9.7,7c2.7,0.9,5.6,1.5,8.6,1.6
				c1.8-1.9,3.5-4.1,4.9-6.8c0,0,1.7,2.1,2.4,2.7C59.4,42.3,58.6,37.5,57.1,33.3z"/>
		</g>
	</g>
	<g id="XMLID_47_">
		<g id="XMLID_48_">
			<rect id="XMLID_19_" x="54.4" y="26.8" width="1.7" height="3.4"/>
			<polygon id="XMLID_18_" points="49.5,26.8 50.9,26.8 50.9,28 53.4,28 53.4,30.9 56,30.9 56,33.2 52.1,33.2 52.1,30.2 50.9,30.2 
				50.9,33.2 49.5,33.2 			"/>
		</g>
	</g>
	<g id="XMLID_43_">
		<g id="XMLID_44_">
			<polygon id="XMLID_17_" points="28.8,26.8 32.4,26.8 32.4,33.2 30.9,33.2 30.9,29.2 28.8,29.2 			"/>
			<polygon id="XMLID_16_" points="25.9,26.8 27.4,26.8 27.4,30.5 29.5,30.5 29.5,33.2 25.9,33.2 			"/>
		</g>
	</g>
</g>
</svg>
