<?xml version="1.0" encoding="utf-8"?>
<!-- Generator: Adobe Illustrator 19.0.0, SVG Export Plug-In . SVG Version: 6.00 Build 0)  -->
<svg version="1.1" id="レイヤー_1" xmlns="http://www.w3.org/2000/svg" xmlns:xlink="http://www.w3.org/1999/xlink" x="0px"
	 y="0px" viewBox="0 0 82 74" style="enable-background:new 0 0 82 74;" xml:space="preserve">
<style type="text/css">
	.st0{fill:#D6DC00;}
	.st1{fill:#FFFFFF;}
</style>
<g>
	<path d="M82,0.3L42.3,10.9l5.9,5.9L8.5,56.4l17.3,17.3l39.7-39.7l5.9,5.9L82,0.3L82,0.3z M77.5,4.8l-7.8,29.1l-4.2-4.2L25.8,69.2
		L23,66.4l11.6-11.6l-2.1-2.1L20.9,64.3L18,61.4l11.6-11.6l-2.1-2.1L15.9,59.3L13,56.4l39.7-39.7l-4.2-4.2L77.5,4.8L77.5,4.8z"/>
	<polygon id="XMLID_13_" class="st0" points="77.5,4.8 69.7,33.8 65.5,29.6 25.8,69.2 23,66.4 34.6,54.7 32.5,52.6 20.9,64.3 
		18,61.4 29.6,49.8 27.5,47.7 15.9,59.3 13,56.4 52.7,16.8 48.4,12.5 77.5,4.8 	"/>
	<path d="M0,0.3L10.6,40l5.9-5.9l39.7,39.7l17.3-17.3L33.8,16.8l5.9-5.9L0,0.3L0,0.3z M4.5,4.8l29.1,7.8l-4.2,4.2L69,56.4l-2.9,2.9
		L54.5,47.7l-2.1,2.1L64,61.4l-2.9,2.9L49.5,52.6l-2.1,2.1L59,66.4l-2.9,2.9L16.5,29.6l-4.2,4.2L4.5,4.8L4.5,4.8z"/>
	<polygon id="XMLID_10_" class="st1" points="4.5,4.8 33.6,12.5 29.3,16.8 69,56.4 66.1,59.3 54.5,47.7 52.4,49.8 64,61.4 
		61.1,64.3 49.5,52.6 47.4,54.7 59,66.4 56.2,69.2 16.5,29.6 12.3,33.8 4.5,4.8 	"/>
	<path d="M61.3,37c-5.6-3.5-14.5,8-20.2,8c-5.7,0-14.6-11.5-20.2-8c-5.6,3.5-0.2,17.2,10.1,18.8c10.3,1.6,6.4-7,10.1-7
		c3.7,0-0.2,8.7,10.1,7C61.5,54.2,66.9,40.5,61.3,37z M37.4,50.2c-2.5,2.8-5.9,3.3-9.6,1.4c-3.7-1.9-5-6.1-3.3-9.5
		c1-2,2.7-2.1,4.6-1.5c-0.6,0.1-1.1,0.4-1.4,1.1c-1.1,2.1-0.1,4.8,2.4,6.1c2.5,1.3,4.8,1.1,6.4-0.7c0.6-0.7,0.7-1.4,0.5-2
		C38.6,46.7,39,48.4,37.4,50.2z M54.2,51.6c-3.7,1.9-7.1,1.5-9.6-1.4c-1.5-1.7-1.2-3.4,0.1-4.9c-0.1,0.6,0,1.2,0.6,1.8
		c1.6,1.8,3.9,1.9,6.4,0.7c2.5-1.3,3.5-4,2.4-6.1c-0.3-0.7-0.8-1-1.3-1.1c2-0.7,3.6-0.6,4.7,1.5C59.2,45.5,57.9,49.7,54.2,51.6z
		 M48.7,42.5c0.7-0.3,1.3-0.7,2-1c0.3,0.1,0.5,0.3,0.7,0.7c0.6,1.2,0.3,2.8-0.9,3.4c-1.2,0.6-2.4,0.4-3.2-0.7
		c-0.4-0.5-0.4-0.9-0.3-1.3C47.4,43.2,48,42.8,48.7,42.5z M33.3,42.5c0.6,0.3,1.3,0.7,1.8,1.1c0.1,0.4,0.1,0.8-0.3,1.3
		c-0.9,1.1-2,1.3-3.2,0.7c-1.2-0.6-1.6-2.1-0.9-3.4c0.2-0.4,0.4-0.6,0.7-0.7C32,41.8,32.7,42.1,33.3,42.5z"/>
	<g>
		<path id="XMLID_4_" class="st1" d="M37.4,50.2c-2.5,2.8-5.9,3.3-9.6,1.4c-3.7-1.9-5-6.1-3.3-9.5c1-2,2.7-2.1,4.6-1.5
			c-0.6,0.1-1.1,0.4-1.4,1.1c-1.1,2.1-0.1,4.8,2.4,6.1c2.5,1.3,4.8,1.1,6.4-0.7c0.6-0.7,0.7-1.4,0.5-2C38.6,46.7,39,48.4,37.4,50.2z
			"/>
		<path id="XMLID_3_" class="st1" d="M54.2,51.6c-3.7,1.9-7.1,1.5-9.6-1.4c-1.5-1.7-1.2-3.4,0.1-4.9c-0.1,0.6,0,1.2,0.6,1.8
			c1.6,1.8,3.9,1.9,6.4,0.7c2.5-1.3,3.5-4,2.4-6.1c-0.3-0.7-0.8-1-1.3-1.1c2-0.7,3.6-0.6,4.7,1.5C59.2,45.5,57.9,49.7,54.2,51.6z"/>
		<path id="XMLID_2_" class="st1" d="M48.7,42.5c0.7-0.3,1.3-0.7,2-1c0.3,0.1,0.5,0.3,0.7,0.7c0.6,1.2,0.3,2.8-0.9,3.4
			c-1.2,0.6-2.4,0.4-3.2-0.7c-0.4-0.5-0.4-0.9-0.3-1.3C47.4,43.2,48,42.8,48.7,42.5z"/>
		<path id="XMLID_1_" class="st1" d="M33.3,42.5c0.6,0.3,1.3,0.7,1.8,1.1c0.1,0.4,0.1,0.8-0.3,1.3c-0.9,1.1-2,1.3-3.2,0.7
			c-1.2-0.6-1.6-2.1-0.9-3.4c0.2-0.4,0.4-0.6,0.7-0.7C32,41.8,32.7,42.1,33.3,42.5z"/>
	</g>
</g>
</svg>
